<?xml version="1.0" encoding="UTF-8"?>
<!DOCTYPE svg PUBLIC "-//W3C//DTD SVG 1.1//EN" "http://www.w3.org/Graphics/SVG/1.1/DTD/svg11.dtd">
<!-- Creator: CorelDRAW 2018 (64-Bit) -->
<svg xmlns="http://www.w3.org/2000/svg" xml:space="preserve" width="483mm" height="330mm" version="1.1" style="shape-rendering:geometricPrecision; text-rendering:geometricPrecision; image-rendering:optimizeQuality; fill-rule:evenodd; clip-rule:evenodd"
viewBox="0 0 48300 33000"
 xmlns:xlink="http://www.w3.org/1999/xlink">
 <defs>
  <style type="text/css">
   <![CDATA[
    .fil2 {fill:#FFF212}
    .fil0 {fill:#ED3237}
    .fil1 {fill:#00AFEF}
    .fil3 {fill:#00A859}
   ]]>
  </style>
 </defs>
 <g id="Layer_x0020_1">
  <metadata id="CorelCorpID_0Corel-Layer"/>
  <path class="fil0" d="M2182.9 21374.31l9889.76 -13390.23c1597.53,-1478.61 3522.52,-1373.4 4851.31,-105.13l9581 13576.43 -16944.36 81.07 2594.34 -3810.45 5999.44 0 -3729.38 -4864.43 -6485.88 8755.95 -5756.23 -243.21z"/>
  <polygon class="fil1" points="21640.56,7186.43 21721.63,13185.87 25101.26,17941.04 27709.99,21413.98 45660.52,21390.08 45566.66,13036.52 33115.03,13071.52 35834.84,16109.22 41476.72,16299.94 41446.42,17749.87 26261.76,17482.77 26261.76,7105.36 "/>
  <path class="fil2" d="M32931.63 16812.86c-1711.92,-3407.15 -862.49,-5311.28 2627.47,-5852.11 2785.55,-186.56 5468.43,-211.49 8041.66,-79.61l3065.4 -3961.11c-5247.82,-111.42 -10941.37,-93.63 -12540.23,218.94 -5662.52,1437.29 -7867.47,4603.5 -6290.02,9634.08l5095.72 39.81z"/>
  <polygon class="fil3" points="26302.02,17401.72 25059.88,17856.59 27631.64,21495.54 45826.4,21635.5 45861.39,12888.02 32775.15,12888.02 35731.8,16273.29 41312.71,16483.23 41347.69,17576.67 "/>
 </g>
</svg>
